<?xml version="1.0" encoding="utf-8"?>
<!-- Generator: Adobe Illustrator 19.0.0, SVG Export Plug-In . SVG Version: 6.00 Build 0)  -->
<svg version="1.1" id="Layer_1" xmlns="http://www.w3.org/2000/svg" xmlns:xlink="http://www.w3.org/1999/xlink" x="0px" y="0px"
	 viewBox="-448.7 616.3 151.1 170.8" style="enable-background:new -448.7 616.3 151.1 170.8;" xml:space="preserve">
<style type="text/css">
	.st0{fill:#2196F3;}
</style>
<g>
	<path class="st0" d="M-393.1,659.4c-13.4,0-24.3,10.9-24.3,24.3c0,18.3,19.3,32.2,28,32.2l-3.7-9.6c13.3-0.1,24.2-9.2,24.2-22.5
		C-368.9,670.2-379.8,659.4-393.1,659.4z M-393.1,696.2l-9.5,0.1c-2.8-3.6-4.8-7.9-4.8-12.6c0-7.9,6.4-14.3,14.3-14.3
		s14.3,6.4,14.3,14.3C-378.9,692.2-386.3,696.1-393.1,696.2z"/>
	<path class="st0" d="M-373.1,616.3c-41.7,0-75.6,33.9-75.6,75.6c0,38,28.6,69.8,65.4,74.9v20.3h10c15.9,0,35.1-10.5,49.9-27.5
		c16.7-19,25.8-43.1,25.8-67.8C-297.5,650.2-331.4,616.3-373.1,616.3z M-373.3,777.1v-19.6c-36-0.2-65.4-29.5-65.4-65.6
		c0-36.3,29.3-65.6,65.6-65.6s65.6,29.3,65.6,65.6C-307.5,741.4-347.8,777.1-373.3,777.1z"/>
	<path class="st0" d="M-349.1,687.9c-10.2,0-18.5,8.3-18.5,18.5c0,10.1,8.3,17.1,18.5,17.2l-1.9,7.4c5.7,0,20.5-10.6,20.5-24.6
		C-330.5,696.2-338.8,687.9-349.1,687.9z M-343,713.7h-6c-4.2,0-8.6-2.3-8.6-7.2c0-4.7,3.8-8.5,8.5-8.5s8.5,3.8,8.5,8.6
		C-340.5,709.1-341.5,711.6-343,713.7z"/>
</g>
</svg>
