<svg xmlns="http://www.w3.org/2000/svg" viewBox="0 0 2618.86 2616.5"><defs><style>.cls-1{fill:#e91e63;}</style></defs><title>Vyndue Icon_1</title><g id="Layer_2" data-name="Layer 2"><g id="Layer_1-2" data-name="Layer 1"><path class="cls-1" d="M1510.46,343.48c31.44,0,62.55,13.89,85.35,38.1s34.11,54.73,32.22,86.32l-2.76,45.87,45.6,5.69a998.33,998.33,0,0,1,406.62,144.8,1038.67,1038.67,0,0,1,167.07,130.08,1063.4,1063.4,0,0,1,240.2,345.32,1042.05,1042.05,0,0,1,64.11,202.6,1012.4,1012.4,0,0,1,21,213.91A999.68,999.68,0,0,1,2406.08,2095a1039,1039,0,0,1-231.16,250.66,1053.38,1053.38,0,0,1-298.6,163.47,1018.68,1018.68,0,0,1-339.07,58.35,1002.93,1002.93,0,0,1-319.41-52.25,1039,1039,0,0,1-321.68-176.18,1026.5,1026.5,0,0,1-325.89-464.72c-4.26-12.37-8.64-38.89-12.88-64.55-11.09-67.12-20-113.2-41.41-140.89-23.82-30.76-57.58-38.75-84.71-45.16-19.91-4.7-37.1-8.77-51.88-20.17-17.38-13.41-29.58-29.88-36.27-49a106.51,106.51,0,0,1-3.49-56.2,117,117,0,0,1,85.12-90.14c23.48-6.22,48-10.16,71.69-14,88.93-14.3,199.61-32.1,232.69-193.08,23.42-114-32.65-183.8-82.11-245.43-31-38.56-60.2-75-68.78-120.69-8.73-46.48-.17-95.66,24.11-138.48s62.08-75.49,106.47-92c26.22-9.76,49-14.5,69.49-14.5,23.18,0,43.26,6,65.11,19.46,22.32,13.74,44.32,34.11,67.61,55.68,26.05,24.13,55.57,51.47,91.28,74.75a261.57,261.57,0,0,0,143.15,42.72c110.07,0,208.91-69.26,246-172.34,15.87-44.16,16.14-89.8,16.38-130.07.2-34.16.39-66.42,10.17-88.73,6.24-14.26,19.15-32.17,63.86-44.28a109.5,109.5,0,0,1,28.63-3.84m0-49A158,158,0,0,0,1469,300c-162.88,44.11-84.08,183.5-123.72,293.8-31.75,88.33-114.23,139.92-199.85,139.92A212.23,212.23,0,0,1,1029.07,699C934,637,885.38,541.13,778.31,541.13c-25.17,0-53.57,5.29-86.58,17.58-114,42.41-184.13,165.77-161.65,285.45,25.76,137.12,183.5,189.32,151,347.2-33.6,163.52-150.48,138.19-268.93,169.55-126.66,33.54-170.67,198.21-62.74,281.47,47.22,36.43,101.87,23.07,127.78,56.53,25.06,32.37,32.08,148.93,46.69,191.38a1078.18,1078.18,0,0,0,202.45,352.5C895.46,2438.9,1134,2570,1390.49,2606.19a1049,1049,0,0,0,146.76,10.31c490.11,0,939.44-342.49,1053.83-830,144-613.63-288.26-1237.52-914.14-1315.66,5.74-95.73-74.58-176.36-166.48-176.36Z"/><path class="cls-1" d="M1148.85,423.14a96.11,96.11,0,1,1-96.11,96.1,96.22,96.22,0,0,1,96.11-96.1m0-49A145.11,145.11,0,1,0,1294,519.24a145.1,145.1,0,0,0-145.11-145.1Z"/><path class="cls-1" d="M1432.23,49a48.68,48.68,0,1,1-48.68,48.68A48.73,48.73,0,0,1,1432.23,49m0-49a97.68,97.68,0,1,0,97.68,97.68A97.68,97.68,0,0,0,1432.23,0Z"/><path class="cls-1" d="M467.23,1036.54a84.5,84.5,0,1,1-84.49,84.5,84.59,84.59,0,0,1,84.49-84.5m0-49A133.5,133.5,0,1,0,600.72,1121a133.49,133.49,0,0,0-133.49-133.5Z"/><path class="cls-1" d="M95.44,899.54A46.44,46.44,0,1,1,49,946a46.48,46.48,0,0,1,46.44-46.43m0-49A95.44,95.44,0,1,0,190.87,946a95.44,95.44,0,0,0-95.43-95.43Z"/><path class="cls-1" d="M517,411.23a46.44,46.44,0,1,1-46.44,46.44A46.49,46.49,0,0,1,517,411.23m0-49a95.44,95.44,0,1,0,95.43,95.44A95.44,95.44,0,0,0,517,362.23Z"/><path class="cls-1" d="M637.4,49.46a48,48,0,1,0,48,48,48,48,0,0,0-48-48Z"/><path class="cls-1" d="M1010.57,49.57a48,48,0,1,0,48,48,48,48,0,0,0-48-48Z"/><path class="cls-1" d="M322,105.78a48,48,0,1,0,48,48,48,48,0,0,0-48-48Z"/><path class="cls-1" d="M163.94,506.08a13.07,13.07,0,1,1-13.06,13.06,13.08,13.08,0,0,1,13.06-13.06m0-49A62.07,62.07,0,1,0,226,519.14a62.06,62.06,0,0,0-62.06-62.06Z"/><path class="cls-1" d="M95.73,63.5A16.58,16.58,0,1,1,79.15,80.07,16.58,16.58,0,0,1,95.73,63.5m0-49A65.58,65.58,0,1,0,161.3,80.07,65.58,65.58,0,0,0,95.73,14.5Z"/><path class="cls-1" d="M2241.87,966.38,1501.26,2244.81,760.64,966.38h0a679.61,679.61,0,0,1,629.19,422.71l127.6,312.51,147.13-351.91A624,624,0,0,1,2240.3,966.38Z"/></g></g></svg>