<?xml version="1.0" encoding="utf-8"?>
<!-- Generator: Adobe Illustrator 19.0.0, SVG Export Plug-In . SVG Version: 6.00 Build 0)  -->
<svg version="1.1" id="Layer_1" xmlns="http://www.w3.org/2000/svg" xmlns:xlink="http://www.w3.org/1999/xlink" x="0px" y="0px"
	 viewBox="-248 452 52 52" style="enable-background:new -248 452 52 52;" xml:space="preserve">
<style type="text/css">
	.st0{fill:#D81919;}
</style>
<title>ico_bearish_no_ring</title>
<path class="st0" d="M-198.6,468.9c1.9-2.4,2.8-5.4,2.6-8.4c-0.1-1.6-0.8-3.1-2-4.1c-1.7-1.5-3.5-1.5-5.5-0.6
	c-1.3,0.6-2.5,1.5-3.5,2.6c-1.1-0.6-2.1-1.3-3.1-1.8c-3.3-1.9-6.8-2.9-10.6-1.9c-0.9,0.2-1.7,0.2-2.6,0c-0.9-0.2-1.9-0.3-2.9-0.4
	c-2.4-0.1-4.7,0.5-6.7,1.7c-1.4,0.7-2.8,1.5-4.2,2.3c-1-1.1-2.2-2-3.5-2.6c-2.5-1.1-4.9-0.5-6.3,1.5s-1.4,4.4-0.9,6.7
	c0.5,1.9,1.3,3.6,2.4,5.2c0.2,0.2,0.2,0.5,0.2,0.7c-0.7,3.3-1.2,6.6-1.5,9.9c-0.2,1.7-0.1,3.5,0.3,5.2c0.9,3.1,2.5,5.9,4.7,8.2
	c2,2.2,4.7,3.8,7.6,4.6c2.1,0.5,4.1,1.4,5.9,2.7c1.3,1,2.7,1.8,4.3,2.3c0.6,0.3,1.3,0.4,2,0.4c2-0.4,3.9-1.2,5.5-2.4
	c1.1-0.8,2.4-1.5,3.6-2c1.5-0.6,3.1-1,4.6-1.6c3.6-1.5,6.5-4.2,8.4-7.7c1.3-2,2.1-4.3,2.2-6.7c0-4.2-0.4-8.4-1.4-12.5
	C-199,469.7-198.9,469.3-198.6,468.9z"/>
</svg>
