<?xml version="1.0" encoding="utf-8"?>
<!-- Generator: Adobe Illustrator 19.0.0, SVG Export Plug-In . SVG Version: 6.00 Build 0)  -->
<svg version="1.1" id="Layer_1" xmlns="http://www.w3.org/2000/svg" xmlns:xlink="http://www.w3.org/1999/xlink" x="0px" y="0px"
	 viewBox="-241 453 52 52" style="enable-background:new -241 453 52 52;" xml:space="preserve">
<style type="text/css">
	.st0{fill:#41AF2B;}
</style>
<title>ico_bullish_no_ring</title>
<path class="st0" d="M-190.1,466.5c-1.7-3.2-4.5-4.9-7.9-5.8c-0.6-0.1-1.2-0.1-1.8,0c0.2,0.2,0.3,0.3,0.4,0.5c0.8,1,1.6,2.1,2.3,3.2
	c0.8,1.7,0.3,3.7-1.3,4.7l-0.2-0.3c-1.1-2.4-2.5-4.6-4.2-6.5c-3.3-3.7-7.4-4.6-11.9-2.5c-0.2,0.1-0.5,0.1-0.7,0
	c-2.9-1.3-5.8-1.6-8.6-0.1c-2,1.1-3.6,2.7-4.8,4.6c-1,1.5-1.9,3.1-2.9,4.7c-1.1-0.8-1.7-2.1-1.6-3.5c0.2-1,0.6-2,1.3-2.8
	c0.5-0.7,1.1-1.4,1.8-2.2c-0.7,0-1.4,0.1-2.1,0.2c-2.5,0.6-4.8,2-6.5,4c-1.7,1.8-2.4,4.3-2.1,6.7c0.2,2.2,1.4,4.2,3.2,5.4
	c0.8,0.6,1.7,1.1,2.6,1.6c-0.2,1-0.6,2.1-0.7,3.1c-0.2,1.3-0.1,2.6,0.8,3.5c1.4,1.6,3.6,2.1,5.6,1.4c0.6-0.2,1.1-0.5,1.7-0.8
	c1.2,3,3.1,5.7,3.8,8.9c0.3,1.6,1.4,2.9,2.9,3.4c0.7,0.3,1.4,0.6,2.1,0.9c1.8,0.8,3.7,1,5.6,0.6c1.5-0.4,2.9-0.9,4.4-1.5
	c1.5-0.6,2.7-1.9,3-3.4c0.2-0.8,0.4-1.6,0.7-2.4c0.7-1.5,1.5-3.1,2.2-4.6c0.3-0.6,0.6-1.3,1-2l0.5,0.3c1.1,0.7,2.4,1,3.6,0.8
	c2.6-0.5,4.5-2.2,3.9-5.3c-0.2-1-0.5-2.1-0.7-3c0.9-0.6,1.8-1.1,2.7-1.7c2-1.4,3.1-3.7,3.2-6.1C-189,469.3-189.4,467.8-190.1,466.5z
	"/>
</svg>
